<svg width="12" height="15" viewBox="0 0 12 15" fill="none" xmlns="http://www.w3.org/2000/svg">
<path d="M8.47949 3.479C8.61556 3.479 8.84749 3.50065 9.17529 3.54395C9.50309 3.58724 9.86182 3.71094 10.2515 3.91504C10.6473 4.11296 11.006 4.44385 11.3276 4.90771C11.3091 4.92627 11.2194 4.9943 11.0586 5.11182C10.8978 5.22314 10.7184 5.39014 10.5205 5.61279C10.3226 5.82926 10.1494 6.10758 10.001 6.44775C9.85254 6.78174 9.77832 7.18066 9.77832 7.64453C9.77832 8.17643 9.87109 8.62793 10.0566 8.99902C10.2484 9.37012 10.4679 9.67008 10.7153 9.89893C10.9689 10.1216 11.1916 10.2855 11.3833 10.3906C11.5812 10.4958 11.6864 10.5514 11.6987 10.5576C11.6925 10.5824 11.6121 10.8019 11.4575 11.2163C11.3091 11.6307 11.0617 12.0915 10.7153 12.5986C10.4123 13.0378 10.0845 13.4429 9.73193 13.814C9.38558 14.1851 8.9681 14.3706 8.47949 14.3706C8.15169 14.3706 7.88265 14.3242 7.67236 14.2314C7.46208 14.1325 7.24561 14.0366 7.02295 13.9438C6.80029 13.8449 6.50033 13.7954 6.12305 13.7954C5.75814 13.7954 5.45199 13.8449 5.20459 13.9438C4.96338 14.0428 4.73145 14.1418 4.50879 14.2407C4.29232 14.3397 4.03564 14.3892 3.73877 14.3892C3.28727 14.3892 2.89144 14.2098 2.55127 13.8511C2.2111 13.4924 1.86165 13.0625 1.50293 12.5615C1.08854 11.9678 0.73291 11.2441 0.436035 10.3906C0.145345 9.53092 0 8.66504 0 7.79297C0 6.85905 0.17627 6.07666 0.528809 5.4458C0.881348 4.80876 1.33285 4.32943 1.8833 4.00781C2.43994 3.68001 3.01514 3.51611 3.60889 3.51611C3.92432 3.51611 4.22119 3.56868 4.49951 3.67383C4.77783 3.77279 5.0376 3.87484 5.27881 3.97998C5.5262 4.08512 5.74886 4.1377 5.94678 4.1377C6.13851 4.1377 6.36117 4.08203 6.61475 3.9707C6.86833 3.85938 7.15283 3.75114 7.46826 3.646C7.78369 3.53467 8.12077 3.479 8.47949 3.479ZM7.96924 2.30078C7.72803 2.59147 7.42497 2.83577 7.06006 3.03369C6.69515 3.22542 6.3488 3.32129 6.021 3.32129C5.95296 3.32129 5.88802 3.3151 5.82617 3.30273C5.81999 3.28418 5.8138 3.25016 5.80762 3.20068C5.80143 3.1512 5.79834 3.09863 5.79834 3.04297C5.79834 2.67188 5.87874 2.31315 6.03955 1.9668C6.20036 1.61426 6.38281 1.32357 6.58691 1.09473C6.84668 0.785482 7.17448 0.528809 7.57031 0.324707C7.96615 0.120605 8.34342 0.0123698 8.70215 0C8.7207 0.0804036 8.72998 0.17627 8.72998 0.287598C8.72998 0.658691 8.65885 1.02051 8.5166 1.37305C8.37435 1.7194 8.19189 2.02865 7.96924 2.30078Z" fill="white"/>
</svg>
