<?xml version="1.0" encoding="UTF-8" standalone="no"?>
<!-- Created with Inkscape (http://www.inkscape.org/) -->

<svg
   width="40.562382mm"
   height="40.562035mm"
   viewBox="0 0 40.562382 40.562034"
   version="1.1"
   id="svg1"
   xml:space="preserve"
   xmlns="http://www.w3.org/2000/svg"
   xmlns:svg="http://www.w3.org/2000/svg"><defs
     id="defs1"><clipPath
       clipPathUnits="userSpaceOnUse"
       id="clipPath3"><path
         d="M 0,250 H 600 V 0 H 0 Z"
         transform="translate(-91.236902,-167.68411)"
         id="path3" /></clipPath><clipPath
       clipPathUnits="userSpaceOnUse"
       id="clipPath5"><path
         d="M 0,250 H 600 V 0 H 0 Z"
         transform="translate(-91.2547,-100.97881)"
         id="path5" /></clipPath><clipPath
       clipPathUnits="userSpaceOnUse"
       id="clipPath7"><path
         d="M 0,250 H 600 V 0 H 0 Z"
         transform="translate(-91.2466,-128.62651)"
         id="path7" /></clipPath><clipPath
       clipPathUnits="userSpaceOnUse"
       id="clipPath9"><path
         d="M 0,250 H 600 V 0 H 0 Z"
         transform="translate(-187.32651,-167.68411)"
         id="path9" /></clipPath><clipPath
       clipPathUnits="userSpaceOnUse"
       id="clipPath11"><path
         d="M 0,250 H 600 V 0 H 0 Z"
         transform="translate(-187.3087,-100.97881)"
         id="path11" /></clipPath><clipPath
       clipPathUnits="userSpaceOnUse"
       id="clipPath13"><path
         d="M 0,250 H 600 V 0 H 0 Z"
         transform="translate(-187.3168,-128.62651)"
         id="path13" /></clipPath></defs><g
     id="g1"
     transform="matrix(0.26458333,0,0,0.26458334,146.47992,-68.196226)"><g
       id="group-MC0"><g
         id="g2"><path
           id="path2"
           d="M 0,0 C -2.974,2.469 -6.118,4.602 -9.438,6.34 L -9.44,-22.943 c 3.282,-1.944 6.427,-4.233 9.447,-6.778 21.229,-17.887 36.038,-49.015 44.516,-71.194 1.039,-2.723 1.985,-5.311 2.836,-7.724 C 45.507,-96.884 33.345,-27.683 0,0"
           style="fill:#36a5dd;fill-opacity:1;fill-rule:nonzero;stroke:none"
           transform="matrix(1.3333333,0,0,-1.3333333,-541.03127,266.20283)"
           clip-path="url(#clipPath3)" /><path
           id="path4"
           d="m 0,0 c -3.008,1.483 -6.161,2.807 -9.461,3.946 l -0.002,-23.405 c 3.285,0.364 6.44,0.472 9.468,0.374 16.934,-0.55 29.792,-7.649 37.826,-13.804 C 30.024,-22.244 17.441,-8.598 0,0"
           style="fill:#36a5dd;fill-opacity:1;fill-rule:nonzero;stroke:none"
           transform="matrix(1.3333333,0,0,-1.3333333,-541.00754,355.14323)"
           clip-path="url(#clipPath5)" /><path
           id="path6"
           d="M 0,0 C -3.023,2.523 -6.175,4.781 -9.45,6.724 L -9.452,-17.76 c 3.298,-1.119 6.455,-2.426 9.458,-3.901 19.569,-9.611 32.893,-25.869 40.24,-36.941 C 31.527,-39.192 18.016,-15.035 0,0"
           style="fill:#003366;fill-opacity:1;fill-rule:nonzero;stroke:none"
           transform="matrix(1.3333333,0,0,-1.3333333,-541.01834,318.27963)"
           clip-path="url(#clipPath7)" /><path
           id="path8"
           d="M 0,0 C 2.974,2.469 6.118,4.602 9.438,6.34 L 9.44,-22.943 c -3.282,-1.944 -6.427,-4.233 -9.447,-6.778 -21.229,-17.887 -36.038,-49.015 -44.516,-71.194 -1.039,-2.723 -1.985,-5.311 -2.836,-7.724 C -45.507,-96.884 -33.345,-27.683 0,0"
           style="fill:#36a5dd;fill-opacity:1;fill-rule:nonzero;stroke:none"
           transform="matrix(1.3333333,0,0,-1.3333333,-412.9118,266.20283)"
           clip-path="url(#clipPath9)" /><path
           id="path10"
           d="m 0,0 c 3.008,1.483 6.161,2.807 9.461,3.946 l 0.002,-23.405 c -3.285,0.364 -6.44,0.472 -9.468,0.374 -16.934,-0.55 -29.792,-7.649 -37.826,-13.804 C -30.024,-22.244 -17.441,-8.598 0,0"
           style="fill:#36a5dd;fill-opacity:1;fill-rule:nonzero;stroke:none"
           transform="matrix(1.3333333,0,0,-1.3333333,-412.93554,355.14323)"
           clip-path="url(#clipPath11)" /><path
           id="path12"
           d="M 0,0 C 3.023,2.523 6.175,4.781 9.45,6.724 L 9.452,-17.76 C 6.154,-18.879 2.997,-20.186 -0.006,-21.661 -19.575,-31.272 -32.899,-47.53 -40.246,-58.602 -31.527,-39.192 -18.016,-15.035 0,0"
           style="fill:#003366;fill-opacity:1;fill-rule:nonzero;stroke:none"
           transform="matrix(1.3333333,0,0,-1.3333333,-412.92474,318.27963)"
           clip-path="url(#clipPath13)" /></g></g></g></svg>
